<svg xmlns="http://www.w3.org/2000/svg" width="1800" height="550" viewBox="0 0 1800 550"><rect width="100%" height="100%" fill="#EEE"/><path fill="#31343C" d="M436.695 331.755h27.43v19.52h-84.4v-19.52h30.91v-88.93q0-5.28.32-10.87l-21.95 18.36q-1.9 1.47-3.74 1.84-1.85.37-3.48.06-1.64-.32-2.9-1.11-1.27-.79-1.9-1.74l-8.23-11.29 46.52-39.56h21.42v133.24Zm101.81.85q6.43 0 11.29-1.85 4.85-1.85 8.17-5.12 3.32-3.27 5.01-7.8 1.69-4.54 1.69-9.81 0-12.56-6.96-18.99-6.97-6.44-19.2-6.44-12.24 0-19.2 6.44-6.97 6.43-6.97 18.99 0 5.27 1.69 9.81 1.69 4.53 5.01 7.8 3.33 3.27 8.18 5.12t11.29 1.85Zm0-115.95q-5.81 0-10.03 1.8-4.22 1.79-7.01 4.8-2.8 3-4.12 6.91-1.31 3.9-1.31 8.23 0 4.53 1.1 8.8 1.11 4.28 3.75 7.6 2.64 3.32 6.96 5.33 4.33 2 10.66 2t10.65-2q4.33-2.01 6.97-5.33 2.63-3.32 3.74-7.6 1.11-4.27 1.11-8.8 0-4.33-1.37-8.23-1.37-3.91-4.12-6.91-2.74-3.01-6.96-4.8-4.22-1.8-10.02-1.8Zm25.74 55.07q13.92 4.54 20.57 13.88 6.65 9.33 6.65 22.84 0 10.13-3.85 18.35-3.85 8.23-10.82 14.04-6.96 5.8-16.72 8.96-9.76 3.17-21.57 3.17-11.82 0-21.58-3.17-9.76-3.16-16.72-8.96-6.96-5.81-10.81-14.04-3.85-8.22-3.85-18.35 0-13.51 6.64-22.84 6.65-9.34 20.57-13.88-11.07-4.64-16.61-13.18-5.54-8.55-5.54-20.58 0-8.65 3.53-16.14 3.54-7.49 9.87-13.03 6.33-5.54 15.14-8.65 8.81-3.11 19.36-3.11 10.55 0 19.36 3.11 8.81 3.11 15.14 8.65 6.33 5.54 9.86 13.03 3.53 7.49 3.53 16.14 0 12.03-5.53 20.58-5.54 8.54-16.62 13.18Zm152.55 3.27q0 19.94-4.27 34.66-4.27 14.72-11.82 24.32-7.54 9.6-17.83 14.29-10.28 4.7-22.2 4.7-11.93 0-22.11-4.7-10.18-4.69-17.67-14.29-7.49-9.6-11.71-24.32-4.22-14.72-4.22-34.66 0-20.04 4.22-34.71 4.22-14.66 11.71-24.26 7.49-9.6 17.67-14.3 10.18-4.69 22.11-4.69 11.92 0 22.2 4.69 10.29 4.7 17.83 14.3 7.55 9.6 11.82 24.26 4.27 14.67 4.27 34.71Zm-26.9 0q0-16.56-2.43-27.43-2.42-10.86-6.49-17.3-4.06-6.43-9.33-9.02-5.28-2.58-10.97-2.58-5.6 0-10.82 2.58-5.22 2.59-9.23 9.02-4.01 6.44-6.38 17.3-2.38 10.87-2.38 27.43 0 16.57 2.38 27.43 2.37 10.87 6.38 17.31 4.01 6.43 9.23 9.02 5.22 2.58 10.82 2.58 5.69 0 10.97-2.58 5.27-2.59 9.33-9.02 4.07-6.44 6.49-17.31 2.43-10.86 2.43-27.43Zm149.28 0q0 19.94-4.27 34.66-4.27 14.72-11.82 24.32-7.54 9.6-17.83 14.29-10.28 4.7-22.2 4.7-11.93 0-22.11-4.7-10.18-4.69-17.67-14.29-7.49-9.6-11.71-24.32-4.22-14.72-4.22-34.66 0-20.04 4.22-34.71 4.22-14.66 11.71-24.26 7.49-9.6 17.67-14.3 10.18-4.69 22.11-4.69 11.92 0 22.2 4.69 10.29 4.7 17.83 14.3 7.55 9.6 11.82 24.26 4.27 14.67 4.27 34.71Zm-26.9 0q0-16.56-2.43-27.43-2.42-10.86-6.49-17.3-4.06-6.43-9.33-9.02-5.28-2.58-10.97-2.58-5.6 0-10.82 2.58-5.22 2.59-9.23 9.02-4.01 6.44-6.38 17.3-2.38 10.87-2.38 27.43 0 16.57 2.38 27.43 2.37 10.87 6.38 17.31 4.01 6.43 9.23 9.02 5.22 2.58 10.82 2.58 5.69 0 10.97-2.58 5.27-2.59 9.33-9.02 4.07-6.44 6.49-17.31 2.43-10.86 2.43-27.43Zm194.44 41.36-13.82 13.61-35.77-35.77-36.08 35.98-13.82-13.61 36.08-36.19-34.39-34.39 13.71-13.71 34.4 34.39 34.18-34.18 13.92 13.71-34.28 34.29 35.87 35.87Zm110.88-94-5.38 31.75q5.06-1.05 9.7-1.53 4.64-.47 8.97-.47 12.03 0 21.2 3.59 9.18 3.58 15.41 9.91 6.22 6.33 9.39 14.83 3.16 8.49 3.16 18.3 0 12.13-4.27 22.16-4.27 10.02-11.87 17.14-7.6 7.12-17.99 11.02-10.39 3.91-22.63 3.91-7.17 0-13.61-1.48-6.43-1.48-12.08-3.96-5.64-2.47-10.44-5.69t-8.6-6.81l8.02-11.07q2.53-3.59 6.65-3.59 2.63 0 5.38 1.69 2.74 1.68 6.27 3.69 3.54 2 8.34 3.69t11.55 1.69q7.17 0 12.66-2.32t9.13-6.49q3.64-4.17 5.48-9.92 1.85-5.75 1.85-12.5 0-12.45-7.23-19.46-7.23-7.02-21.36-7.02-10.87 0-22.26 4.01l-16.25-4.64 12.66-74.06h75.33v11.07q0 5.6-3.48 9.08-3.49 3.48-11.82 3.48h-41.88Zm122.38 0-5.38 31.75q5.06-1.05 9.7-1.53 4.64-.47 8.97-.47 12.03 0 21.2 3.59 9.18 3.58 15.41 9.91 6.22 6.33 9.39 14.83 3.16 8.49 3.16 18.3 0 12.13-4.27 22.16-4.27 10.02-11.87 17.14-7.6 7.12-17.99 11.02-10.39 3.91-22.63 3.91-7.17 0-13.61-1.48-6.43-1.48-12.08-3.96-5.64-2.47-10.44-5.69t-8.6-6.81l8.02-11.07q2.53-3.59 6.65-3.59 2.63 0 5.38 1.69 2.74 1.68 6.27 3.69 3.54 2 8.34 3.69t11.55 1.69q7.17 0 12.66-2.32t9.13-6.49q3.64-4.17 5.48-9.92 1.85-5.75 1.85-12.5 0-12.45-7.23-19.46-7.23-7.02-21.36-7.02-10.87 0-22.26 4.01l-16.25-4.64 12.66-74.06h75.33v11.07q0 5.6-3.48 9.08-3.49 3.48-11.82 3.48h-41.88Zm191.27 52.64q0 19.94-4.27 34.66-4.28 14.72-11.82 24.32t-17.83 14.29q-10.29 4.7-22.21 4.7-11.92 0-22.1-4.7-10.18-4.69-17.67-14.29-7.49-9.6-11.71-24.32-4.22-14.72-4.22-34.66 0-20.04 4.22-34.71 4.22-14.66 11.71-24.26 7.49-9.6 17.67-14.3 10.18-4.69 22.1-4.69 11.92 0 22.21 4.69 10.29 4.7 17.83 14.3 7.54 9.6 11.82 24.26 4.27 14.67 4.27 34.71Zm-26.9 0q0-16.56-2.43-27.43-2.43-10.86-6.49-17.3-4.06-6.43-9.34-9.02-5.27-2.58-10.97-2.58-5.59 0-10.81 2.58-5.22 2.59-9.23 9.02-4.01 6.44-6.39 17.3-2.37 10.87-2.37 27.43 0 16.57 2.37 27.43 2.38 10.87 6.39 17.31 4.01 6.43 9.23 9.02 5.22 2.58 10.81 2.58 5.7 0 10.97-2.58 5.28-2.59 9.34-9.02 4.06-6.44 6.49-17.31 2.43-10.86 2.43-27.43Z"/></svg>