<svg width="32" height="29" viewBox="0 0 32 29" fill="none" xmlns="http://www.w3.org/2000/svg">
<path opacity="0.32" d="M31.9943 12.4656C31.9943 16.6081 31.88 19.8536 31.7787 21.9604C31.7445 22.3059 31.6402 22.6407 31.4723 22.9445C31.3043 23.2483 31.0762 23.5146 30.8018 23.7273C30.5274 23.9399 30.2125 24.0943 29.8764 24.1812C29.5403 24.268 29.19 24.2854 28.847 24.2322C24.7246 23.7422 20.5749 23.5192 16.4238 23.5648C12.2723 23.5192 8.1222 23.7421 3.99949 24.2322C3.65588 24.2863 3.30484 24.2696 2.96791 24.1832C2.63098 24.0968 2.31526 23.9424 2.04013 23.7296C1.765 23.5167 1.53627 23.2499 1.36795 22.9455C1.19964 22.6411 1.09531 22.3055 1.06135 21.9593C0.953525 19.8525 0.845703 16.6071 0.845703 12.4646C0.845703 8.32205 0.959994 5.07662 1.06135 2.96979C1.09562 2.62412 1.20006 2.28907 1.36829 1.98516C1.53652 1.68125 1.76499 1.41486 2.03973 1.2023C2.31446 0.989736 2.62968 0.83547 2.9661 0.748941C3.30252 0.662412 3.65305 0.645439 3.99625 0.699063C8.11896 1.18917 12.2691 1.4121 16.4205 1.36648C20.5717 1.41206 24.7214 1.18912 28.8437 0.699063C29.1868 0.645923 29.5371 0.663293 29.8732 0.750112C30.2093 0.83693 30.5241 0.991374 30.7985 1.204C31.0729 1.41663 31.3011 1.68298 31.469 1.98677C31.637 2.29057 31.7413 2.62542 31.7754 2.97086C31.88 5.0777 31.9943 8.32313 31.9943 12.4656Z" fill="#767676"/>
<path d="M6.43868 23.9614C5.95996 25.0828 5.43379 26.4122 4.98309 27.774C4.94808 27.8697 4.93541 27.9722 4.94602 28.0736C4.95664 28.175 4.99027 28.2727 5.04435 28.3591C5.09843 28.4455 5.17153 28.5184 5.25808 28.5723C5.34463 28.6262 5.44234 28.6596 5.54376 28.67C6.23784 28.7268 6.93552 28.7236 7.62903 28.6603C7.9439 28.6309 8.24795 28.5302 8.51809 28.3658C8.78824 28.2014 9.01738 27.9776 9.18814 27.7115C10.1079 26.3098 10.9985 24.8531 11.7144 23.6455C9.61511 23.7156 7.86732 23.832 6.43868 23.9614Z" fill="#767676"/>
<path d="M21.127 23.6423C21.8429 24.8499 22.7335 26.3077 23.6532 27.7083C23.824 27.9745 24.0531 28.1982 24.3233 28.3626C24.5934 28.527 24.8974 28.6278 25.2123 28.6571C25.9057 28.7215 26.6034 28.7258 27.2976 28.6701C27.399 28.6597 27.4967 28.6263 27.5833 28.5724C27.6698 28.5185 27.7429 28.4456 27.797 28.3591C27.8511 28.2727 27.8847 28.1751 27.8953 28.0737C27.9059 27.9723 27.8933 27.8698 27.8583 27.7741C27.4076 26.4123 26.8814 25.0785 26.4027 23.9615C24.974 23.8321 23.2262 23.7157 21.127 23.6423Z" fill="#767676"/>
<path d="M7.07617 8.63781C7.07786 8.43505 7.11948 8.2346 7.19864 8.04792C7.2778 7.86124 7.39296 7.69198 7.53753 7.54981C7.68211 7.40763 7.85328 7.29533 8.04126 7.21931C8.22924 7.14329 8.43035 7.10504 8.63312 7.10674H19.536C19.9421 7.10674 20.3315 7.26805 20.6187 7.55518C20.9058 7.84231 21.0671 8.23175 21.0671 8.63781C21.0671 9.04388 20.9058 9.43331 20.6187 9.72044C20.3315 10.0076 19.9421 10.1689 19.536 10.1689H8.63312C8.43035 10.1706 8.22924 10.1323 8.04126 10.0563C7.85328 9.98029 7.68211 9.86799 7.53753 9.72581C7.39296 9.58364 7.2778 9.41438 7.19864 9.2277C7.11948 9.04102 7.07786 8.84057 7.07617 8.63781Z" fill="#767676"/>
<path d="M7.07617 15.5265C7.07786 15.3237 7.11948 15.1233 7.19864 14.9366C7.2778 14.7499 7.39296 14.5807 7.53753 14.4385C7.68211 14.2963 7.85328 14.184 8.04126 14.108C8.22924 14.032 8.43035 13.9937 8.63312 13.9954H14.8631C15.2691 13.9954 15.6585 14.1567 15.9457 14.4439C16.2328 14.731 16.3941 15.1204 16.3941 15.5265C16.3941 15.9325 16.2328 16.322 15.9457 16.6091C15.6585 16.8962 15.2691 17.0576 14.8631 17.0576H8.63312C8.43035 17.0593 8.22924 17.021 8.04126 16.945C7.85328 16.869 7.68211 16.7567 7.53753 16.6145C7.39296 16.4723 7.2778 16.3031 7.19864 16.1164C7.11948 15.9297 7.07786 15.7292 7.07617 15.5265Z" fill="#767676"/>
</svg>
