<svg width="32" height="29" viewBox="0 0 32 29" fill="none" xmlns="http://www.w3.org/2000/svg">
<path opacity="0.32" d="M31.2687 12.4656C31.2687 16.6081 31.1544 19.8536 31.0531 21.9604C31.0189 22.3059 30.9146 22.6407 30.7467 22.9445C30.5787 23.2483 30.3506 23.5146 30.0762 23.7273C29.8018 23.9399 29.4869 24.0943 29.1508 24.1812C28.8147 24.268 28.4644 24.2854 28.1214 24.2322C23.999 23.7422 19.8493 23.5192 15.6982 23.5648C11.5467 23.5192 7.39661 23.7421 3.2739 24.2322C2.93029 24.2863 2.57925 24.2696 2.24232 24.1832C1.90539 24.0968 1.58968 23.9424 1.31455 23.7296C1.03942 23.5167 0.810681 23.2499 0.642368 22.9455C0.474056 22.6411 0.369719 22.3055 0.335761 21.9593C0.227939 19.8525 0.120117 16.6071 0.120117 12.4646C0.120117 8.32205 0.234408 5.07662 0.335761 2.96979C0.37003 2.62412 0.474474 2.28907 0.642702 1.98516C0.81093 1.68125 1.0394 1.41486 1.31414 1.2023C1.58888 0.989736 1.9041 0.83547 2.24051 0.748941C2.57693 0.662412 2.92746 0.645439 3.27067 0.699063C7.39337 1.18917 11.5435 1.4121 15.695 1.36648C19.8461 1.41206 23.9958 1.18912 28.1182 0.699063C28.4612 0.645923 28.8115 0.663293 29.1476 0.750112C29.4837 0.83693 29.7985 0.991374 30.0729 1.204C30.3473 1.41663 30.5755 1.68298 30.7434 1.98677C30.9114 2.29057 31.0157 2.62542 31.0498 2.97086C31.1544 5.0777 31.2687 8.32313 31.2687 12.4656Z" fill="#2D3671"/>
<path d="M5.7131 23.9614C5.23437 25.0828 4.7082 26.4122 4.25751 27.774C4.2225 27.8697 4.20982 27.9722 4.22044 28.0736C4.23105 28.175 4.26468 28.2727 4.31877 28.3591C4.37285 28.4455 4.44595 28.5184 4.5325 28.5723C4.61905 28.6262 4.71676 28.6596 4.81818 28.67C5.51225 28.7268 6.20993 28.7236 6.90345 28.6603C7.21832 28.6309 7.52236 28.5302 7.79251 28.3658C8.06265 28.2014 8.2918 27.9776 8.46255 27.7115C9.38227 26.3098 10.2729 24.8531 10.9888 23.6455C8.88952 23.7156 7.14173 23.832 5.7131 23.9614Z" fill="#2D3671"/>
<path d="M20.4014 23.6423C21.1173 24.8499 22.0079 26.3077 22.9276 27.7083C23.0984 27.9745 23.3275 28.1982 23.5977 28.3626C23.8678 28.527 24.1719 28.6278 24.4867 28.6571C25.1802 28.7215 25.8778 28.7258 26.572 28.6701C26.6734 28.6597 26.7711 28.6263 26.8577 28.5724C26.9442 28.5185 27.0173 28.4456 27.0714 28.3591C27.1255 28.2727 27.1591 28.1751 27.1697 28.0737C27.1804 27.9723 27.1677 27.8698 27.1327 27.7741C26.682 26.4123 26.1558 25.0785 25.6771 23.9615C24.2484 23.8321 22.5007 23.7157 20.4014 23.6423Z" fill="#2D3671"/>
<path d="M6.35059 8.63781C6.35228 8.43505 6.39389 8.2346 6.47305 8.04792C6.55221 7.86124 6.66737 7.69198 6.81195 7.54981C6.95652 7.40763 7.12769 7.29533 7.31567 7.21931C7.50365 7.14329 7.70477 7.10504 7.90753 7.10674H18.8105C19.2165 7.10674 19.606 7.26805 19.8931 7.55518C20.1802 7.84231 20.3415 8.23175 20.3415 8.63781C20.3415 9.04388 20.1802 9.43331 19.8931 9.72044C19.606 10.0076 19.2165 10.1689 18.8105 10.1689H7.90753C7.70477 10.1706 7.50365 10.1323 7.31567 10.0563C7.12769 9.98029 6.95652 9.86799 6.81195 9.72581C6.66737 9.58364 6.55221 9.41438 6.47305 9.2277C6.39389 9.04102 6.35228 8.84057 6.35059 8.63781Z" fill="#2D3671"/>
<path d="M6.35059 15.5265C6.35228 15.3237 6.39389 15.1233 6.47305 14.9366C6.55221 14.7499 6.66737 14.5807 6.81195 14.4385C6.95652 14.2963 7.12769 14.184 7.31567 14.108C7.50365 14.032 7.70477 13.9937 7.90753 13.9954H14.1375C14.5435 13.9954 14.933 14.1567 15.2201 14.4439C15.5072 14.731 15.6685 15.1204 15.6685 15.5265C15.6685 15.9325 15.5072 16.322 15.2201 16.6091C14.933 16.8962 14.5435 17.0576 14.1375 17.0576H7.90753C7.70477 17.0593 7.50365 17.021 7.31567 16.945C7.12769 16.869 6.95652 16.7567 6.81195 16.6145C6.66737 16.4723 6.55221 16.3031 6.47305 16.1164C6.39389 15.9297 6.35228 15.7292 6.35059 15.5265Z" fill="#2D3671"/>
</svg>
