<svg width="328" height="165" viewBox="0 0 328 165" fill="none" xmlns="http://www.w3.org/2000/svg">
<g clip-path="url(#clip0_507_742)">
<path d="M328 147.342C326.701 149.576 324.992 151.545 322.963 153.146C320.488 155.015 318.175 155.056 316.594 152.103C316.244 151.431 315.955 151.76 315.612 152.009C314.539 152.857 313.31 153.485 311.994 153.858C308.853 154.672 306.614 153.058 306.762 149.823C306.997 144.618 309.573 140.704 314.113 138.196C316.426 136.924 318.544 138.391 318.773 141.208C318.847 142.116 318.551 143.085 319.748 143.683C320.367 143.993 320.131 144.927 319.963 145.593C319.674 146.84 319.588 148.125 319.708 149.4C319.748 149.931 319.661 150.617 320.313 150.825C320.965 151.034 321.45 150.57 321.853 150.153C322.862 149.057 323.83 147.927 324.819 146.79C325.108 146.474 325.411 146.178 325.707 145.876C325.981 145.548 326.367 145.333 326.79 145.272C327.213 145.211 327.644 145.309 328 145.546V147.342ZM309.768 149.258C309.768 150.886 310.501 151.404 311.786 150.772C312.278 150.514 312.731 150.188 313.131 149.803C314.385 148.532 315.444 147.082 316.271 145.499C316.577 144.965 316.706 144.349 316.639 143.737C316.573 143.126 316.314 142.552 315.901 142.096C315.444 141.551 315.108 141.383 314.496 141.968C313.389 142.964 312.382 144.065 311.49 145.257C310.555 146.405 309.959 147.79 309.768 149.258Z" fill="#383838"/>
<path d="M189.482 89.2901C187.357 91.1261 185.164 92.8544 182.084 93.7556C184.048 91.9062 185.79 90.3325 187.464 88.6781C189.022 87.2151 190.316 85.4953 191.291 83.5939C193.16 79.7202 192.535 76.5728 189.314 73.7415C187.498 72.1409 185.87 70.4327 185.568 67.857C185.29 65.7588 185.837 63.6348 187.094 61.9321C189.367 58.7713 192.474 56.6327 195.958 54.9984C196.065 54.938 196.189 54.9145 196.31 54.9315C196.432 54.9485 196.544 55.0051 196.631 55.0926C194.909 56.6057 193.154 58.0786 191.493 59.6388C189.857 61.0202 188.565 62.7631 187.72 64.7298C187.128 66.2967 187.471 67.635 188.581 68.9935C189.544 65.3285 191.908 62.1887 195.164 60.2508C194.788 60.7821 194.398 61.3066 194.028 61.8447C192.723 63.7479 191.546 65.6982 191.143 68.0385C190.771 70.2502 191.28 72.5197 192.562 74.3602C195.837 79.4444 195.467 84.5892 192.77 89.7407C191.422 92.1214 189.636 94.2254 187.505 95.9413C187.141 96.2574 186.765 96.4591 187.067 97.0711C187.853 98.793 188.25 100.666 188.231 102.559C188.858 101.805 189.328 100.932 189.613 99.9928C189.897 99.0537 189.989 98.067 189.885 97.0913C189.717 95.1948 189.677 95.1948 191.526 94.9998C194.216 94.7173 196.931 94.4393 199.67 94.1658C200 94.1322 200.343 94.1658 200.746 94.1658C200.134 96.291 198.655 97.784 197.135 99.6468C198.776 99.398 199.691 98.5372 200.652 97.858C202.342 96.6998 203.863 95.3123 205.172 93.7354C205.324 93.5336 205.52 93.3684 205.744 93.252C205.969 93.1356 206.217 93.071 206.469 93.0629C213.235 92.4913 219.987 91.886 226.753 91.3211C227.77 91.2536 228.791 91.2965 229.799 91.4489C228.051 91.9062 226.309 92.3568 224.567 92.7939C216.275 94.9796 208.077 97.4208 200.43 101.422C195.783 103.79 191.615 106.998 188.137 110.885C185.823 113.514 183.429 116.05 180.342 117.838C175.157 120.845 169.528 121.84 163.59 121.571C165.661 120.898 167.746 120.226 169.804 119.493C171.999 118.791 174.077 117.767 175.971 116.453C178.573 114.523 178.701 112.626 176.3 110.488C174.254 108.804 171.882 107.561 169.333 106.836C164.679 105.411 159.864 104.582 155.002 104.368C147.671 103.836 140.304 104.079 133.024 105.094C128.067 105.827 123.246 107.112 118.988 109.903C118.598 110.163 118.225 110.448 117.872 110.757C115.855 112.566 115.855 114.496 117.872 116.271C120.28 118.35 123.185 119.479 126.084 120.596C127.825 121.268 129.614 121.833 131.356 122.559C128.032 122.683 124.71 122.247 121.531 121.268C115.579 119.479 110.945 115.76 106.675 111.409C103.312 108 99.889 104.684 95.8203 102.108C91.9735 99.667 87.7501 98.127 83.4796 96.6071C81.3141 95.8269 79.1418 94.5021 76.9629 94.4954C74.7839 94.4887 73.4927 93.2243 71.7576 92.646C69.202 91.7919 66.4918 91.6573 63.8421 91.2337C63.6362 91.2171 63.4386 91.145 63.2704 91.0252C66.3438 90.2652 69.4643 90.4468 72.6251 90.5813C72.6722 89.9828 72.1746 89.781 71.8719 89.4918C67.9646 85.6921 64.5213 81.5494 62.0801 76.64C58.7977 70.2793 58.0525 62.9097 59.9953 56.0207C62.2818 47.6411 66.8348 40.5259 73.0421 34.453C75.7792 31.763 79.3167 30.2162 82.7398 28.5954C90.81 24.7957 99.2972 23.417 108.161 23.0875C118.094 22.7176 126.648 18.9986 132.762 10.7535C133.723 9.45559 134.524 8.06348 135.405 6.71844C137.012 9.04535 136.138 11.9439 134.961 13.7395C132.863 16.9609 129.803 19.1197 126.669 21.2314C125.552 21.9779 124.402 22.6706 123.266 23.3901L123.36 23.7062C124.523 23.5516 125.693 23.4372 126.85 23.2287C132.136 22.267 137.093 20.5387 140.933 16.5708C144.773 12.603 146.138 7.68687 146.373 2.34036C146.407 1.57369 146.373 0.807021 146.474 0.0269012C147.342 1.79562 147.496 3.71902 147.638 5.62897C148.505 16.8667 141.027 23.7062 131.127 25.7641C126.743 26.6855 122.304 26.5779 117.865 26.4366C112.189 26.2349 106.493 25.9457 100.857 26.8469C92.6863 28.1583 85.524 31.42 80.386 38.2259C77.4899 42.1153 75.7866 46.7625 75.4833 51.6022C75.0126 57.4868 75.7187 63.1695 78.7249 68.4152C80.6368 71.7432 83.348 74.5423 86.6135 76.5593C86.7792 76.6397 86.9527 76.7028 87.1313 76.7476C85.941 69.9081 88.5571 63.8757 90.9714 57.8499C94.6972 48.5423 99.4586 39.739 104.314 30.9896C104.412 30.8514 104.519 30.721 104.637 30.5995C105.572 32.3548 106.439 34.0495 107.381 35.6972C109.398 39.1876 112.519 40.9496 116.419 41.3867C122.102 42.0256 127.321 40.351 132.304 37.8829C138.794 34.7794 144.446 30.1674 148.788 24.4325C149.662 23.2624 150.422 22.0115 151.357 20.6194C151.955 24.1972 150.751 27.0352 148.828 29.6244C145.782 33.7335 141.693 36.6724 137.469 39.4297C137.046 39.7054 136.615 39.9677 136.124 40.2636C136.369 40.3457 136.63 40.3707 136.887 40.3369C137.143 40.3032 137.388 40.2114 137.604 40.0686C146.219 36.706 152.009 30.4448 155.762 22.1393C158.721 15.5889 160.18 8.68893 161.007 1.56697C161.047 1.18609 161.14 0.81262 161.283 0.457312C162.327 4.73556 162.779 9.13664 162.628 13.5378C162.487 20.1015 161.209 26.4366 157.86 32.1598C151.33 43.3235 141.659 49.1139 128.558 48.7911C127.106 48.7349 125.671 48.4582 124.301 47.9706C122.257 47.2843 120.032 47.3705 118.047 48.2128C115.512 49.2148 113.017 50.3177 110.501 51.3601C110.152 51.5081 109.909 51.6627 109.916 52.0864C109.957 54.7025 110.212 57.2985 111.456 59.6455C112.754 62.1002 114.879 62.9476 117.596 62.2953C119.203 61.8701 120.749 61.2418 122.196 60.4257C122.519 60.2575 122.802 59.9078 123.373 60.3046C120.993 62.4432 118.625 64.5213 115.343 64.9382C112.943 65.2409 110.912 63.7748 109.661 61.1856C108.683 59.0471 108.004 56.7841 107.643 54.4604C107.522 53.7879 107.388 53.6534 106.681 53.9359C106.073 54.1592 105.528 54.5278 105.095 55.0095C104.661 55.4912 104.352 56.0714 104.193 56.6999C102.935 60.5803 101.873 64.4809 102.028 68.5833C102.216 73.4994 103.776 77.8909 107.603 81.1863C111.604 84.6295 116.628 84.3269 120.381 80.5877C123.562 77.4067 125.68 73.5128 127.866 69.6593C128.15 69.0244 128.549 68.4475 129.043 67.9578C128.507 70.0779 127.865 72.1699 127.119 74.2257C126.278 76.6041 125.134 78.8644 123.716 80.9509C120.26 85.8804 115.229 87.3465 109.661 85.0667C103.4 82.4977 100.245 77.8102 99.9293 71.085C99.6872 65.9336 100.884 60.9973 102.176 56.1081C103.238 52.073 104.476 48.085 105.222 44.0028C105.806 41.3144 105.848 38.5363 105.343 35.8317C103.998 37.9972 102.734 39.9072 101.557 41.8844C98.3825 47.1838 95.289 52.537 93.11 58.3476C90.5544 65.1467 89.3708 72.0737 91.543 79.2292C91.9197 80.4868 92.4577 81.6974 92.8881 82.9415C93.0176 83.2545 93.2255 83.529 93.4916 83.7387C93.7578 83.9483 94.0733 84.086 94.408 84.1386C101.302 86.2379 108.362 87.7475 115.512 88.6512C115.807 88.6848 116.09 88.7655 116.574 88.8597C115.761 89.7844 114.72 90.48 113.555 90.8772C111.236 91.765 108.762 92.1738 106.282 92.0791C103.801 91.9843 101.366 91.3878 99.1223 90.3258C96.6542 89.1758 94.2398 87.9114 91.5834 87.1986C88.0267 86.1867 84.2394 86.3398 80.7761 87.6357C80.015 87.917 79.322 88.356 78.7425 88.9239C78.163 89.4918 77.7101 90.1758 77.4135 90.931C77.0705 91.7717 77.0369 92.1886 78.1465 92.2761C81.2065 92.5921 84.2462 93.0293 87.2927 93.3924C88.3478 93.4551 89.3379 93.9224 90.0568 94.6971C92.1199 97.01 94.688 98.8165 97.5621 99.9764L93.4395 94.1457C94.6682 94.1106 95.8974 94.1894 97.1115 94.381C99.3577 94.5962 101.611 94.8384 103.837 94.9729C104.745 95.0267 104.966 95.3158 104.859 96.2036C104.689 97.4748 104.673 98.7619 104.812 100.037C104.854 101.037 105.286 101.981 106.016 102.666C106.231 101.523 106.069 100.481 106.318 99.472C106.481 98.6462 106.889 97.8887 107.489 97.2984C108.089 96.7081 108.853 96.3124 109.681 96.1632C111.237 95.8604 112.838 95.8741 114.388 96.2036C116.345 96.5783 118.276 97.0724 120.172 97.6831C116.897 99.6401 113.79 101.449 113.124 105.478C114.021 104.702 114.918 103.931 115.814 103.164C118.164 101.175 120.877 99.6609 123.804 98.7053C124.119 98.5773 124.461 98.531 124.799 98.5708C129.507 99.3577 134.214 99.3308 138.969 99.4653C139.346 99.4798 139.72 99.5339 140.085 99.6267C136.642 100.266 133.205 100.884 130.058 102.613C142.749 100.156 155.818 100.435 168.392 103.433C167.735 102.518 166.786 101.854 165.702 101.55C162.594 100.366 159.292 100.205 156.044 99.7813C155.594 99.7208 155.103 99.8352 154.787 99.472C159.494 99.1021 164.303 98.7524 169.078 98.3354C170.215 98.2139 171.36 98.4742 172.333 99.0752C175.46 100.918 178.533 102.814 181.075 105.484C180.564 101.523 177.329 99.8688 174.39 97.8243C175.395 97.5031 176.433 97.2978 177.484 97.2123C180.571 96.7483 183.624 96.1834 186.227 94.2667C187.815 93.0981 189.026 91.4895 189.71 89.6398C189.865 89.4784 189.959 89.3035 189.825 89.0883L189.482 89.2901ZM79.4243 35.3408C79.1418 35.2063 78.9334 35.1794 78.7518 35.3408C75.5439 37.9434 72.3225 40.5124 69.6123 43.6665C63.5125 50.7481 60.8225 58.7982 62.8871 68.0654C64.5751 75.7052 68.812 82.0202 73.7953 87.898C74.2459 88.4293 74.4342 88.1401 74.7503 87.8038C76.1942 86.2307 77.9482 84.9737 79.9018 84.1117C82.6255 82.9281 85.4635 82.8877 88.3217 83.1366C89.4112 83.2307 89.5188 82.8743 89.3574 81.9462C89.0346 80.0833 87.8039 78.9737 86.3378 78.0322C83.7735 76.42 81.4001 74.5226 79.2629 72.3763C72.995 65.9537 70.769 58.4215 72.9345 49.6318C74.1854 44.4735 76.5863 39.8534 79.4243 35.3408ZM196.906 99.9697C197.175 99.9697 197.323 99.9226 197.35 99.7477C197.35 99.7007 197.169 99.5527 197.115 99.5729C196.963 99.6496 196.82 99.7444 196.691 99.8553L196.906 99.9697Z" fill="#383838"/>
<path d="M291.751 149.11C290.547 150.631 289.181 152.016 287.676 153.24C285.114 155.109 283.271 154.881 281.543 152.305C281.072 151.632 280.783 151.733 280.278 152.15C279.396 152.892 278.408 153.497 277.346 153.946C274.918 154.908 273.311 154.444 272.06 152.164C271.441 151.061 271.051 151.215 270.211 151.841C268.96 152.769 267.83 153.912 266.256 154.376C263.99 155.049 262.705 154.262 262.376 151.922C262.013 149.326 262.84 146.858 263.237 144.342C263.344 143.67 263.802 142.735 263.237 142.453C262.49 142.096 262.073 143.125 261.69 143.643C259.672 146.528 257.655 149.46 255.637 152.386C255.291 152.873 254.909 153.334 254.494 153.764C254.241 153.998 253.916 154.139 253.573 154.164C253.229 154.188 252.887 154.095 252.604 153.899C251.871 153.569 252.133 152.964 252.261 152.466C252.949 149.872 253.448 147.231 253.754 144.564C253.821 143.892 254.144 142.87 253.418 142.594C252.692 142.318 252.234 143.266 251.804 143.824C249.564 146.676 247.735 149.81 245.751 152.856C245.57 153.146 245.408 153.448 245.213 153.724C244.312 154.995 243.397 155.008 242.698 153.65C242.16 152.608 241.824 152.453 240.875 153.307C238.542 155.412 236.544 155.224 234.513 152.829C234.043 152.278 233.76 152.157 233.094 152.567C231.812 153.421 230.375 154.015 228.864 154.316C226.336 154.793 224.58 153.468 224.486 150.872C224.379 148.034 225.481 145.546 226.954 143.212C227.876 141.565 229.182 140.164 230.761 139.13C231.991 138.397 233.33 137.826 234.735 138.66C236.141 139.493 236.538 140.899 236.457 142.405C236.457 143.078 236.457 143.555 237.163 143.75C237.762 143.925 237.708 144.336 237.607 144.86C237.289 146.362 237.118 147.891 237.096 149.427C237.096 150.099 237.056 150.886 237.768 151.263C238.481 151.639 239.046 151.128 239.477 150.711C242.415 147.86 245.812 145.331 246.531 140.879C246.637 140.205 246.829 139.547 247.103 138.922C247.25 138.541 247.522 138.222 247.873 138.014C248.224 137.807 248.635 137.724 249.04 137.779C250.075 137.839 250.123 138.545 250.264 139.258C250.304 139.453 250.371 139.648 250.459 139.931C251.192 139.366 251.804 138.828 252.523 138.357C254.454 137.059 255.967 137.563 256.659 139.769C256.982 140.812 257.177 141.901 257.44 143.017C257.917 143.085 258.112 142.614 258.354 142.345C259.728 140.826 261.256 139.453 262.914 138.249C264.931 136.85 266.216 137.402 266.397 139.863C266.579 142.325 266.061 144.699 265.624 147.093C265.384 148.218 265.265 149.366 265.268 150.516C265.268 150.846 265.268 151.242 265.651 151.377C266.034 151.511 266.202 151.202 266.397 150.987C267.648 149.595 268.731 147.987 270.17 146.837C272.773 144.753 274.279 141.74 276.734 139.561C277.437 138.937 278.233 138.429 279.095 138.054C281.146 137.16 283.002 138.142 283.432 140.341C283.539 141.008 283.6 141.682 283.614 142.358C283.614 142.708 283.614 142.997 284.024 143.186C285.06 143.656 285.1 144.531 284.798 145.452C284.465 146.692 284.358 147.981 284.481 149.258C284.481 149.837 284.481 150.556 285.154 150.772C285.732 150.953 286.183 150.516 286.593 150.133C287.678 149.048 288.697 147.901 289.646 146.696C290.198 146.024 290.743 145.351 291.664 145.217C292.262 145.122 292.242 144.665 292.336 144.282C292.728 142.581 293.236 140.91 293.856 139.278C293.948 138.995 294.07 138.722 294.219 138.465C294.717 137.792 295.255 136.965 296.277 137.483C297.3 138 297.111 138.828 296.815 139.715C295.942 141.982 295.267 144.32 294.798 146.703C294.688 147.37 294.62 148.044 294.596 148.72C294.596 149.393 294.556 150.173 295.269 150.55C295.624 150.706 296.016 150.76 296.401 150.707C296.786 150.653 297.148 150.494 297.448 150.247C299.156 149.164 299.801 147.375 300.306 145.539C300.81 143.703 301.193 141.814 301.651 139.951C301.729 139.576 301.835 139.207 301.967 138.848C302.323 137.974 302.875 137.415 303.931 137.691C304.986 137.967 305.034 138.801 304.879 139.621C304.422 142.002 303.951 144.389 303.393 146.75C302.562 150.755 301.229 154.639 299.425 158.31C298.582 160.042 297.4 161.586 295.948 162.85C295.424 163.288 294.831 163.636 294.193 163.879C294.003 163.981 293.796 164.045 293.582 164.066C293.368 164.088 293.152 164.067 292.946 164.004C292.74 163.941 292.549 163.839 292.383 163.702C292.217 163.565 292.08 163.397 291.98 163.206C291.889 163.022 291.837 162.822 291.827 162.617C291.816 162.412 291.847 162.207 291.918 162.014C291.989 161.822 292.099 161.646 292.24 161.497C292.381 161.348 292.551 161.23 292.74 161.149C294.46 160.094 295.828 158.551 296.667 156.717C296.802 156.448 296.923 156.179 297.031 155.903C297.703 154.141 297.703 154.141 295.881 153.966C293.466 153.805 292.283 152.406 291.751 149.11ZM227.506 149.561C227.506 150.308 227.432 150.973 228.024 151.33C228.313 151.469 228.638 151.516 228.955 151.466C229.273 151.415 229.567 151.269 229.799 151.047C231.689 149.763 232.778 147.833 233.969 145.97C234.735 144.766 234.352 143.717 233.727 142.661C233.303 141.935 232.765 141.773 232.113 142.459C231.46 143.145 230.687 143.804 230.095 144.558C228.831 146.077 227.674 147.651 227.506 149.561ZM274.642 149.023C274.595 150.946 275.369 151.431 276.741 150.718C277.151 150.494 277.528 150.215 277.864 149.891C279.205 148.578 280.315 147.048 281.146 145.365C281.411 144.818 281.504 144.203 281.411 143.603C281.319 143.002 281.045 142.444 280.628 142.002C280.184 141.531 279.861 141.538 279.384 141.962C277.918 143.205 276.662 144.677 275.665 146.32C275.119 147.129 274.769 148.055 274.642 149.023Z" fill="#383838"/>
<path d="M58.9192 143.394C60.1701 142.049 61.3941 140.704 62.6853 139.446C63.2483 138.929 63.8689 138.478 64.5347 138.101C66.3035 137.032 67.4938 137.644 67.6888 139.709C67.7856 141.287 67.6656 142.871 67.3324 144.416C66.9488 146.338 66.6949 148.284 66.5725 150.24C66.5725 150.644 66.4581 151.195 66.8885 151.39C67.319 151.585 67.6619 151.128 67.904 150.805C70.5201 147.389 74.0307 144.753 76.4854 141.202C77.3134 140.056 78.3952 139.117 79.6462 138.458C82.3363 136.958 84.6295 138.175 84.8784 141.269C84.9524 142.184 84.6564 143.132 85.867 143.73C86.5395 144.053 86.21 145.042 86.0418 145.748C85.6503 147.106 85.5858 148.537 85.8535 149.924C86.1158 151.02 86.526 151.195 87.4608 150.523C88.5109 149.652 89.4505 148.656 90.2585 147.557C90.81 146.791 91.4718 146.111 92.2223 145.539C92.4155 145.368 92.6582 145.261 92.9155 145.236C93.1729 145.211 93.4316 145.267 93.6547 145.398C93.8339 145.552 93.9656 145.754 94.0346 145.981C94.1037 146.207 94.1072 146.448 94.0448 146.676C94.0261 146.847 93.983 147.015 93.917 147.174C92.3299 150.455 90.1038 153.119 86.5193 154.336C85.1743 154.8 83.7015 154.02 82.8743 152.419C82.4304 151.558 82.1211 151.646 81.4889 152.157C80.5446 152.961 79.4684 153.596 78.3079 154.033C75.9877 154.834 74.2728 154.228 73.2035 152.016C72.7529 151.088 72.4301 151.027 71.6836 151.666C70.9371 152.305 70.0225 152.863 69.2222 153.495C68.5769 153.991 67.8233 154.328 67.023 154.477C65.0055 154.901 63.7748 153.979 63.6067 151.935C63.436 149.848 63.6433 147.748 64.2187 145.734C64.499 144.837 64.6441 143.903 64.6491 142.964C64.6491 142.728 64.7365 142.419 64.4271 142.291C64.1178 142.163 63.9429 142.405 63.7546 142.58C62.536 143.951 61.4422 145.427 60.4862 146.992C59.0672 149.063 57.7961 151.222 56.1888 153.186C55.9231 153.573 55.5521 153.877 55.1195 154.06C54.8506 154.133 54.568 154.139 54.2961 154.078C54.0243 154.017 53.7714 153.891 53.5593 153.71C53.075 153.388 53.3844 152.951 53.4651 152.554C54.109 149.994 54.6097 147.401 54.9648 144.786C55.0151 144.405 55.0354 144.02 55.0253 143.636C55.0253 143.233 55.1397 142.695 54.6622 142.506C54.1847 142.318 53.9022 142.816 53.6332 143.105C51.6964 145.23 50.2706 147.725 48.7239 150.113C47.9505 151.289 47.2376 152.5 46.4844 153.684C45.6437 154.988 44.7426 155.029 43.9826 153.684C43.3841 152.614 43.0075 152.513 42.0458 153.394C39.7861 155.452 37.5197 155.177 35.6905 152.722C35.3004 152.204 35.0919 152.096 34.5068 152.46C33.1514 153.355 31.6384 153.985 30.0481 154.316C27.7615 154.733 26.2685 153.778 25.8717 151.525C25.6023 149.443 25.9829 147.329 26.9612 145.472C27.9633 143.105 29.5397 141.025 31.5478 139.419C31.8847 139.155 32.2501 138.93 32.6372 138.747C35.4551 137.469 37.7417 138.942 37.7349 142.056C37.7349 142.843 37.6139 143.562 38.6159 143.845C39.1338 143.986 38.9656 144.443 38.9051 144.82C38.7101 146.037 38.5083 147.254 38.3267 148.478C38.1893 149.195 38.2545 149.935 38.5151 150.617C38.7706 151.256 39.1876 151.565 39.9273 151.175C40.6917 150.793 41.3854 150.284 41.9785 149.669C43.3235 148.176 44.6686 146.723 46.0136 145.217C46.7674 144.286 47.2616 143.172 47.4461 141.989C47.6304 140.852 47.9675 139.746 48.4481 138.7C48.6062 138.372 48.8651 138.103 49.1869 137.932C49.5088 137.762 49.8767 137.698 50.237 137.752C51.0642 137.785 51.3534 138.29 51.4476 138.969C51.5753 139.91 51.8847 139.863 52.5236 139.305C53.6131 138.364 54.7496 137.173 56.3435 137.819C57.9373 138.465 58.0584 140.025 58.3274 141.45C58.4283 141.988 58.4754 142.54 58.5426 143.078L58.9192 143.394ZM75.8128 149.191C75.7523 150.886 76.5459 151.41 77.9178 150.738C78.2926 150.541 78.6407 150.297 78.9535 150.012C80.2383 148.71 81.3463 147.245 82.2488 145.654C83.0828 144.389 82.8003 143.354 82.0538 142.258C81.6167 141.585 81.2535 141.262 80.507 142.009C79.5438 142.906 78.6449 143.87 77.8169 144.894C76.787 146.128 76.0963 147.609 75.8128 149.191ZM28.6829 149.682C28.6829 151.397 29.5975 151.922 30.8753 151.135C32.8256 149.931 33.9419 148.001 35.0919 146.104C35.8922 144.759 35.8115 143.878 34.8969 142.6C34.4194 141.928 34.0294 141.807 33.3837 142.419C32.1472 143.528 31.0477 144.781 30.1086 146.151C29.3606 147.202 28.8637 148.41 28.6559 149.682H28.6829Z" fill="#383838"/>
<path d="M163.697 149.191C163.381 155.627 159.333 160.463 152.594 158.788C149.957 158.071 147.41 157.058 145.001 155.768C144.133 155.303 143.195 154.983 142.224 154.82C140.966 154.645 140.549 155.076 140.738 156.313C140.791 156.649 140.906 156.986 140.966 157.308C141.094 158.048 141.161 158.781 140.408 159.252C140.161 159.427 139.864 159.518 139.561 159.511C139.258 159.504 138.965 159.399 138.727 159.212C138.377 158.994 138.107 158.668 137.96 158.283C137.813 157.898 137.797 157.475 137.913 157.08C138.143 156.234 138.547 155.445 139.098 154.763C139.649 154.081 140.335 153.521 141.114 153.119C141.894 152.715 143.132 152.581 143.132 151.619C143.172 150.785 141.921 150.778 141.276 150.355C136.844 147.422 134.382 143.172 133.387 138.115C132.245 132.857 132.958 127.365 135.405 122.573C138.31 116.89 143.717 113.608 149.467 114.335C153.428 114.839 156.38 117.105 158.687 120.233C164.289 127.812 164 139.736 158.055 146.979C156.951 148.424 155.564 149.63 153.979 150.522C152.393 151.415 150.643 151.976 148.835 152.17C148.438 152.211 148.061 152.204 148.014 152.742C147.985 152.933 148.026 153.129 148.13 153.292C148.234 153.455 148.394 153.575 148.579 153.63C151.074 154.686 153.623 155.526 156.387 155.203C159.696 154.827 161.707 152.749 163.166 149.971C163.267 149.783 163.348 149.588 163.442 149.393C163.496 149.359 163.536 149.339 163.697 149.191ZM137.604 133.165C137.492 137.248 138.668 141.262 140.966 144.638C144.423 149.642 150.065 150.018 154.047 145.526C156.784 142.419 157.853 138.639 158.082 134.584C158.337 129.876 157.47 125.505 154.679 121.618C151.121 116.648 145.519 116.366 141.592 121.026C138.592 124.517 137.604 128.7 137.604 133.165Z" fill="#9D2663"/>
<path d="M209.059 135.492C209.684 137.873 211.076 139.527 212.704 140.993C214.331 142.459 215.797 143.683 217.351 145.028C222.011 149.063 222.193 152.883 218.427 157.88C214.916 162.541 209.879 163.987 204.25 163.691C201.514 163.599 198.831 162.91 196.388 161.673C195.369 161.134 194.486 160.369 193.808 159.437C193.129 158.504 192.673 157.429 192.474 156.293C192.074 154.279 192.074 152.207 192.474 150.193C192.56 149.82 192.687 149.457 192.851 149.11C192.947 148.802 193.151 148.539 193.425 148.369C193.699 148.198 194.025 148.132 194.344 148.182C194.683 148.212 195 148.366 195.233 148.614C195.466 148.862 195.6 149.187 195.608 149.527C195.661 150.466 195.603 151.407 195.433 152.332C194.922 156.367 196.947 159.393 200.928 160.261C206.073 161.384 210.888 160.631 215.004 157.167C218.366 154.329 218.225 150.314 214.728 147.591C212.233 145.647 209.798 143.656 208.003 141.007C206.932 139.515 206.169 137.826 205.757 136.037C205.746 135.871 205.703 135.708 205.63 135.559C205.557 135.409 205.455 135.276 205.33 135.166C205.205 135.056 205.059 134.971 204.902 134.918C204.744 134.864 204.578 134.842 204.412 134.853C199.307 134.47 194.263 133.508 189.145 133.172C184.754 132.903 180.349 132.674 176.193 134.591C174.779 135.221 173.624 136.315 172.918 137.691C172.245 138.982 171.633 139.211 170.611 138.633C169.589 138.054 169.4 137.173 170.039 135.996C171.492 133.306 173.933 132.042 176.764 131.289C180.436 130.327 184.162 130.253 187.948 130.341C193.719 130.468 199.442 131.141 205.172 131.686C205.733 131.79 206.313 131.732 206.843 131.519C207.373 131.306 207.831 130.946 208.164 130.482C209.784 128.482 211.881 126.921 214.262 125.944C216.643 124.966 219.231 124.602 221.789 124.886C223.026 125.013 224.216 125.425 225.266 126.09C228.158 127.825 228.427 131.174 225.858 133.488C224.022 135.156 221.722 135.62 219.348 135.781C215.916 135.975 212.474 135.878 209.059 135.492ZM211.48 132.271C214.115 132.571 216.775 132.596 219.415 132.345C220.69 132.23 221.928 131.857 223.054 131.248C223.377 131.129 223.658 130.916 223.858 130.635C224.059 130.354 224.17 130.02 224.177 129.675C224.122 129.336 223.975 129.018 223.752 128.757C223.529 128.497 223.239 128.302 222.913 128.195C222.601 128.054 222.277 127.944 221.944 127.866C218.756 126.998 213.598 129.157 211.48 132.271Z" fill="#383838"/>
<path d="M182.44 43.6867C182.319 44.6753 183.113 44.9443 183.281 45.6303C182.151 45.9127 181.553 44.8838 180.537 44.5812C180.712 45.8926 181.943 46.518 182.4 47.9437C181.445 47.2309 180.779 46.7534 180.134 46.249C179.851 46.0338 179.555 45.7648 179.246 46.0405C178.937 46.3162 179.36 46.5584 179.454 46.8072C179.559 46.9855 179.622 47.185 179.64 47.3909C179.657 47.5969 179.628 47.8042 179.555 47.9975C179.085 47.5043 178.697 46.939 178.405 46.323C178.083 45.1326 177.423 45.5025 176.65 45.6841C175.594 45.9262 176.193 46.5584 176.253 47.0628C176.314 47.5671 176.415 48.1589 176.522 48.9054C175.742 47.7958 175.392 46.5651 174.155 45.9127C173.933 47.0762 174.525 47.9975 174.935 49.2753C174.161 48.7613 173.516 48.0759 173.049 47.2724C172.583 46.4688 172.308 45.5687 172.245 44.6417C172.205 44.2315 172.467 43.6464 171.653 43.6531C170.732 43.6531 171.109 44.292 171.068 44.7358C171.006 45.7336 170.88 46.7265 170.692 47.7084C170.315 46.4104 170.16 45.0788 169.494 43.7876C168.499 44.9712 168.755 46.3499 168.546 47.7016C168.18 46.6296 167.967 45.5111 167.914 44.3794C167.82 43.4446 167.181 43.1622 166.495 43.5522C165.809 43.9423 165.614 43.8616 165.231 43.2899C165.011 43.0265 164.733 42.8173 164.42 42.6785C164.106 42.5397 163.764 42.4751 163.422 42.4896C163.14 42.4937 162.866 42.3971 162.649 42.2171C162.432 42.0371 162.286 41.7856 162.238 41.5078C162.13 40.8352 162.796 40.7344 163.24 40.5528C164.216 40.2363 165.247 40.1286 166.266 40.2367C169.333 40.304 172.427 40.6402 175.345 39.3153C176.428 38.8244 177.545 38.3873 178.573 37.7955C180.974 36.4504 181.788 34.4329 181.156 31.6016C180.571 29.0393 179.354 26.6384 179.313 23.9349C179.313 23.2153 178.742 23.6659 178.479 23.7802C176.025 24.8697 173.59 25.9861 171.142 27.0957C169.797 27.7077 168.452 28.3466 167.053 28.9048C166.673 29.043 166.269 29.1042 165.864 29.0848C165.46 29.0655 165.064 28.9659 164.698 28.7919C164.333 28.618 164.006 28.3731 163.736 28.0715C163.466 27.7699 163.258 27.4176 163.126 27.0352C162.931 26.4837 163.26 26.3627 163.57 26.1542C166.985 23.8102 170.797 22.1036 174.821 21.117C176.058 20.801 177.309 20.5118 178.567 20.31C179.3 20.189 179.535 19.8124 179.629 19.1398C179.884 17.5392 179.974 15.9167 179.898 14.2977C179.898 14.096 179.791 13.8471 180.006 13.7194C180.221 13.5916 180.497 13.7799 180.678 13.948C181.136 14.3994 181.436 14.9868 181.533 15.6226C181.749 17.2721 181.814 18.9378 181.728 20.5992C181.682 23.1134 181.908 25.6251 182.4 28.091C183.133 31.3662 185.252 33.7671 187.249 36.2419C189.115 38.5228 191.191 40.6235 193.45 42.5165C193.981 42.9738 194.041 43.2361 193.577 43.8212C190.955 47.0829 187.928 49.9747 185.265 53.2028C182.131 57.0025 179.629 61.1183 179.111 66.1555C178.634 70.8631 180.752 74.1853 184.572 76.64C185.948 77.4925 187.406 78.2045 188.923 78.7652C189.246 78.8862 189.811 78.8795 189.643 79.4377C189.515 79.8479 189.065 79.7336 188.742 79.6865C182.017 78.6576 177.578 74.2055 177.121 67.4467C176.764 62.2818 178.466 57.628 180.84 53.1759C182.111 50.7627 183.62 48.4826 185.346 46.37C185.83 45.7715 185.742 45.442 185.104 45.1057C184.236 44.7089 183.402 44.218 182.44 43.6867ZM185.85 40.0148C185.783 39.0732 185.467 38.2528 184.445 38.1519C183.584 38.0779 183.436 38.8244 183.483 39.4969C183.543 40.4048 183.859 41.2387 184.882 41.3463C185.776 41.4203 185.803 40.6537 185.85 40.0148Z" fill="#383838"/>
<path d="M0 144.927C0.544739 137.072 3.72575 130.69 10.6258 126.507C13.0603 125.028 15.7571 124.389 18.5749 125.566C21.8703 126.944 23.1951 129.742 23.6053 133.017C24.3249 138.74 22.3948 143.777 19.0659 148.297C18.3933 149.225 18.4606 149.736 19.1466 150.55C21.4129 153.24 23.4641 156.044 26.1273 158.351C29.9001 161.626 33.7267 162.124 38.1653 159.844C39.5747 159.136 40.9242 158.315 42.2004 157.389C42.6835 157.039 43.2257 156.78 43.801 156.622C44.1154 156.542 44.4472 156.564 44.7483 156.685C45.0494 156.806 45.3042 157.019 45.4756 157.295C45.5613 157.408 45.6228 157.538 45.6561 157.677C45.6894 157.815 45.694 157.959 45.6693 158.099C45.6447 158.239 45.5916 158.372 45.5131 158.491C45.4346 158.609 45.3326 158.711 45.2133 158.788C40.3712 162.393 35.3475 165.513 28.8846 163.657C25.9928 162.816 23.8071 160.886 21.8501 158.721C20.0208 156.703 18.2723 154.605 16.591 152.46C16.0194 151.727 15.7302 151.848 15.1182 152.345C13.7562 153.448 12.1844 154.263 10.498 154.739C5.66259 156.084 1.21053 153.24 0.342985 148.263C0.116069 147.166 0.00115026 146.048 0 144.927ZM20.801 135.848C20.7471 135.371 20.7068 134.47 20.5319 133.596C19.6711 129.204 15.9588 127.267 11.8699 129.056C6.093 131.578 1.74182 140.274 3.20791 146.373C4.47897 151.673 9.04535 153.381 13.4705 150.227C13.9615 149.877 14.2439 149.655 13.6521 149.104C12.4281 147.967 11.2916 146.515 9.65734 146.232C7.55237 145.869 7.39769 144.544 7.23628 142.943C7.14886 142.056 7.37751 141.76 8.23161 142.002C8.84932 142.156 9.4578 142.344 10.0541 142.567C12.2949 143.524 14.2955 144.967 15.9118 146.79C16.4498 147.362 16.7457 147.288 17.1492 146.703C19.4699 143.555 20.7468 139.759 20.801 135.848Z" fill="#383838"/>
<path d="M145.533 81.0585C146.878 81.2468 147.967 81.4149 149.05 81.536C149.884 81.6301 150.798 81.6301 150.98 80.5743C151.162 79.5184 150.388 79.0477 149.474 78.8594C147.51 78.4626 145.546 78.0658 143.569 77.7497C142.594 77.595 142.641 77.3058 143.192 76.6669C144.221 75.4699 145.21 74.2257 146.212 73.0152C146.55 72.516 147.041 72.1412 147.612 71.9481C148.183 71.755 148.801 71.7542 149.373 71.9459C150.432 72.3177 151.59 72.2866 152.628 71.8585C152.903 71.7422 153.204 71.6991 153.501 71.7333C153.798 71.7675 154.081 71.8777 154.322 72.0535C156.784 73.5778 159.25 75.0888 161.72 76.5862C162.171 76.8553 162.514 77.057 162.157 77.6488C160.658 80.1304 158.936 82.3564 156.105 83.5132C153.273 84.6699 150.664 84.0848 148.095 82.8406C147.118 82.4472 146.242 81.838 145.533 81.0585ZM153.394 81.0181C153.519 81.0221 153.643 81.0015 153.76 80.9575C153.876 80.9135 153.983 80.847 154.074 80.7618C154.165 80.6765 154.238 80.5742 154.289 80.4607C154.34 80.3472 154.369 80.2247 154.373 80.1002C154.377 79.9756 154.356 79.8515 154.312 79.735C154.268 79.6184 154.202 79.5116 154.117 79.4208C154.031 79.3299 153.929 79.2567 153.816 79.2054C153.702 79.1541 153.579 79.1256 153.455 79.1216C153.338 79.1123 153.22 79.1275 153.108 79.1663C152.997 79.2051 152.895 79.2666 152.809 79.347C152.723 79.4274 152.655 79.5248 152.609 79.633C152.562 79.7413 152.539 79.858 152.54 79.9757C152.521 80.1013 152.529 80.2295 152.563 80.3519C152.596 80.4744 152.655 80.5885 152.736 80.6867C152.816 80.7849 152.916 80.8652 153.03 80.9223C153.143 80.9794 153.268 81.012 153.394 81.0181Z" fill="#9D2663"/>
<path d="M95.5848 154.571C96.4389 149.662 97.2594 144.981 98.127 139.991L94.4886 141.793C95.0334 140.112 98.0395 136.877 99.5392 136.306C100.709 135.862 101.644 136.306 102.108 137.839C102.492 139.083 102.989 138.787 103.689 138.209C104.388 137.631 104.96 136.622 106.016 136.265C106.361 136.095 106.754 136.047 107.13 136.132C107.506 136.216 107.841 136.427 108.08 136.729C108.394 137.113 108.586 137.583 108.629 138.077C108.672 138.572 108.565 139.068 108.322 139.5C108.177 139.862 107.896 140.152 107.539 140.31C107.182 140.467 106.777 140.478 106.412 140.341C105.014 139.957 104.011 140.67 103.218 141.686C101.496 143.932 101.039 146.642 100.487 149.305C100.262 150.26 100.138 151.236 100.118 152.217C100.118 153.334 99.5998 153.67 98.6381 153.838C97.6764 154.006 96.7416 154.282 95.5848 154.571Z" fill="#383838"/>
<path d="M205.306 50.3312C204.792 50.0872 204.381 49.6674 204.149 49.1475C200.572 41.5952 193.745 36.3159 189.771 29.0124C190.275 28.7299 190.443 28.9384 190.591 29.1402C193.564 33.0946 197.283 36.3966 200.403 40.2232C202.492 42.6481 204.091 45.455 205.111 48.4885C205.368 49.0671 205.436 49.7117 205.306 50.3312Z" fill="#383838"/>
<path d="M152.096 3.8737C153.63 7.23628 154.686 10.5989 154.02 14.3381C153.932 14.8223 153.892 15.4813 153.186 15.3805C152.608 15.2998 152.574 14.7079 152.621 14.2439C152.898 10.7791 152.721 7.29292 152.096 3.8737Z" fill="#383838"/>
<path d="M152.594 63.5058C152.27 63.5252 151.951 63.427 151.694 63.2293C151.436 63.0315 151.26 62.7476 151.195 62.4297C150.913 61.6362 151.505 61.5017 151.962 61.2461C153.663 60.2777 154.766 60.3853 155.506 61.5891C155.667 61.8446 155.889 62.1137 155.506 62.3087C154.591 62.8315 153.612 63.2338 152.594 63.5058Z" fill="#4A4949"/>
<path d="M148.579 63.3915C147.348 62.8602 146.326 62.2616 145.143 62.1338C144.658 62.0868 144.383 61.9388 144.685 61.4613C144.988 60.9838 145.035 59.9549 145.802 60.2979C146.459 60.585 147.047 61.0098 147.526 61.5434C148.005 62.0771 148.364 62.7072 148.579 63.3915Z" fill="#4A4949"/>
</g>
<defs>
<clipPath id="clip0_507_742">
<rect width="328" height="164.215" fill="white"/>
</clipPath>
</defs>
</svg>
